<svg version="1" xmlns="http://www.w3.org/2000/svg" width="933.333" height="933.333" viewBox="0 0 700.000000 700.000000"><path d="M240.4 15c-10.6 3.6-31.6 12.2-44 18-15.4 7.2-19.7 12.4-19.8 24 0 5.5.7 8.5 5.2 20.1 8.2 21.5 9.3 24.9 9.9 32.6.6 8.6-1.4 16.3-6.1 23.7-3 4.6-44.3 46.6-50.8 51.6-5.4 4.2-14.7 6.8-22.8 6.5-8.8-.4-22.6-4.3-36.5-10.5-13-5.8-22.8-6.9-28.5-3.3-8.1 5.1-17.6 22.8-30.2 56.1-9 23.9-5.8 29.8 24.2 44.3 23 11.2 21.8 10.5 29.8 18.1 4.2 4.1 8.9 13.9 10 20.8.8 5.8.8 64.1-.1 67.5-.3 1.1-.8 3.3-1.2 5-2.7 10.7-12.2 21.4-24.4 27.1-4.2 2-10.8 5.2-14.6 7-11.5 5.5-25.2 14.8-27 18.4-3 5.7-2.2 9.7 6 30.1 7.6 19 9.5 23.4 16 37.5 5 10.9 10.7 15.4 19.4 15.4 4.7 0 18-3.8 30.4-8.6 18.3-7.2 29-8.5 40-4.6 8.2 2.9 13.1 6.9 31.7 25.9 23 23.4 28.6 29.7 31.7 36.2 2.3 4.8 2.7 6.9 2.7 15.1.1 10.2.2 9.7-10.3 37.3-5 12.8-6 17.8-4.9 23.2 1.4 6.7 5.1 10.9 12.6 14.3 16.1 7.3 25.8 11.3 47.7 19.4 23.8 8.9 27 7.2 41.1-21.8 4.8-9.9 10-19.8 11.5-22.1 7.2-10.4 16.2-16.3 29.3-18.7 14.8-2.9 14-.4 14.4-46.3l.3-38.2-4.3-1.2c-2.4-.6-5-1.3-5.8-1.4-3.4-.8-14.3-4.7-22-8-16.1-6.7-29.4-15.7-41.5-27.9-10.3-10.3-15.4-17.5-26.4-37.2-4.8-8.8-11.3-20-14.2-24.9-7.6-12.8-21.9-42-21.9-44.7 0-.8-.4-1.8-.9-2.3-1.5-1.7-8.8-24.3-12-37.5-8.2-33.2-10.1-74.7-4.5-96.5 3.3-12.8 10-25.1 17.7-32.6 5.3-5.2 14-11.9 15.5-11.9.5 0 1.2-.3 1.4-.8.5-1.1 15.4-7.7 23.8-10.5 12.2-4.1 23.2-8.3 37.3-14.4 11-4.7 14.2-5.7 19.2-5.7 13-.2 23.6 10.3 23.7 23.3.2 15-12.6 27-27 25.4-2.6-.3-9.2-.6-14.7-.6-8.8-.1-11.5.4-22.5 3.7-6.9 2.1-15.4 5.1-19 6.8-13.4 6.4-20.4 16.6-22.7 33.3-.9 6.4-.9 36.4 0 43 2.3 16.6 2.5 17.4 4.8 27.3 5.4 23.4 15.5 48 29.6 72 2.4 4.1 4.3 7.6 4.3 7.8 0 1.6 11.9 16.2 18.1 22.1 9.4 9 13.6 12.5 28.1 23.4 17.3 12.9 29.6 19.5 40.4 21.6 7.1 1.4 23.5.8 29.9-1.1 7.3-2.1 23.2-10 31.8-15.7 18.9-12.6 42.2-35.1 53.2-51.5 10.1-15.1 28.7-58.2 31.9-73.9.3-1.1.9-4 1.5-6.5.5-2.5 1.3-6.1 1.6-8 .3-1.9.8-4.2 1-5 .2-.8.7-4.4 1-8 .4-3.6.9-7.9 1.1-9.5.7-4.4.8-33.5 0-37-.3-1.7-.8-4.6-1.1-6.5-1.6-9.7-10.1-21.3-19.4-26.4-6-3.2-18.8-7.9-27.6-10.1-6.1-1.6-16.5-2-32.5-1.5-5.5.2-8.6-.2-11.1-1.4-4.4-2.1-9-6.4-10.8-10.3-.7-1.5-1.8-3.6-2.3-4.6-.5-1-.9-4.4-.9-7.6-.1-9 3.8-16 12.7-22.8 3.2-2.4 4.6-2.8 10.3-2.8 6.1 0 7.5.5 17.6 5.6 14.1 7.3 26.6 12.5 43.5 18.3 20.1 6.9 27.2 10.7 35.5 19 7.4 7.4 11.1 13.9 14.5 25.1 2.3 7.3 5 20.1 5.8 27.5 1.3 11.1.4 48-1.3 53.2-.2.7-.6 3.1-.9 5.3-2.2 15.9-9.4 41.2-17.2 60.2-3.4 8.2-16.7 35.6-18.4 37.8-.4.5-3.8 6.8-7.5 14-15.4 29.8-21.6 39.1-35.2 52.9-17.3 17.4-37 29-63.8 37.3-3.7 1.1-7.2 3-9.2 5.1l-3.3 3.3.5 29.7c.7 36.8.7 36.9 5 41.9 2.9 3.4 4.8 4.5 12.2 6.8 20.2 6.4 26.7 13.5 38.8 42.3 7.9 18.9 14.7 25.3 26.4 24.8 3.1-.2 7.6-.8 10-1.5 5-1.4 25.5-9.2 31.6-12 2.2-1 7.8-3.6 12.5-5.7 15.2-6.8 19-10.1 20.8-18 1.5-6.7.8-10.1-6-27.2-9-22.9-9.6-24.9-9.4-34.8.4-15.3 1.7-17.1 39.6-55.4 19.9-20.1 26-23.6 41-23.4 7.8.1 9.6.5 22 5.4 21.8 8.5 24.8 9.3 33.1 9.4 6.6.1 8.1-.2 11.7-2.6 4.9-3.3 7.4-7.4 14.5-23.8 11.5-26.4 18-44.3 17.9-48.9-.2-9.4-6.4-14.6-33.7-28.6-18.6-9.5-22.7-12-27.2-16.4-6.6-6.3-6.6-6.1-6.7-53.1-.1-42.2-.1-42.5 2.2-47 1.2-2.5 3.6-6 5.4-7.9 2.8-3 12.8-10.1 14.3-10.1 1.1 0 29.9-14.6 34-17.2 8.6-5.5 11.6-10.7 10.9-19-.3-4.1-3.7-15-6.9-22.3-.8-1.7-2.9-6.8-4.8-11.5-11-26.7-16.6-35.6-24.2-38.6-6.4-2.4-12.6-1.5-30.1 4.5-30.7 10.4-39.9 11.7-49.9 7-4.8-2.2-7.6-4.8-48.1-44.6-18.4-18.1-19.2-28.5-4.7-66.8 7-18.6 7.1-26.1.2-33.9-4.6-5.2-11.5-8.8-41.4-21.6-19.4-8.3-22.9-9.4-28.8-9.2-11.4.4-17.8 8.4-32.5 40.2-5.1 11.1-8.7 15.8-15.3 20.2-8.8 5.8-12.5 6.6-32.9 7.3-31.4 1.2-49.8 1.3-55 .3-13.1-2.3-23.5-11.2-30.2-25.6-12.8-27.6-16.7-34.9-20-37.4-8-6.1-13.1-6.7-24.4-2.8zm135.3 254.1c3.6 1.3 4.4 4.4 4.8 17.7.7 21.9 1.5 32.6 2.5 33.6.5.5 10.9 1 23.2 1.1 12.3.1 23.1.5 24 .9 2.5 1.2 2.7 2.4 3.4 23.1 1.1 31.4 1.1 31.8-3.3 33.2-1.6.5-12.8.9-25 .8l-22.3-.1-.1 2.6c-2.2 44.7-2.9 49.3-7.7 51.2-1.6.6-11.1 1-23.4 1-17.2 0-21.2-.3-24.2-1.7-5.3-2.5-5.4-2.9-7.1-37.5-.6-11.5-1-12.9-4-14-1.3-.5-11.5-1.2-22.7-1.6-11.2-.3-21.1-1-22-1.5-3.2-1.7-3.7-4.6-4.3-25.5-.6-18.9-.5-21.2 1.2-24.4 3.4-6.5 6.6-7.3 30.8-7.4h21.2V301c0-26.7.7-30.3 6.3-32.3 2.3-.8 46.3-.5 48.7.4z"/></svg>